<svg  viewBox="0 0 20 20"  xmlns="http://www.w3.org/2000/svg">
<path fill-rule="evenodd" clip-rule="evenodd" d="M10 2.125C5.65076 2.125 2.125 5.65076 2.125 10C2.125 14.3492 5.65076 17.875 10 17.875C14.3492 17.875 17.875 14.3492 17.875 10C17.875 5.65076 14.3492 2.125 10 2.125ZM1 10C1 5.02944 5.02944 1 10 1C14.9706 1 19 5.02944 19 10C19 14.9706 14.9706 19 10 19C5.02944 19 1 14.9706 1 10Z" />
<path fill-rule="evenodd" clip-rule="evenodd" d="M9.4375 15.625V14.5H10.5625V15.625H9.4375Z" />
<path fill-rule="evenodd" clip-rule="evenodd" d="M10.5625 4.375V13.375H9.4375V4.375H10.5625Z" />
</svg>
