<svg width="8" height="6" viewBox="0 0 8 6" fill="none" xmlns="http://www.w3.org/2000/svg">
<path d="M4.31216 5.22222L7.8722 1.66212C7.9546 1.57978 8 1.46986 8 1.35266C8 1.23546 7.9546 1.12554 7.8722 1.0432L7.61008 0.781023C7.43929 0.610423 7.1617 0.610423 6.99116 0.781023L4.00166 3.77053L1.00884 0.777706C0.926432 0.695365 0.816579 0.649902 0.699441 0.649902C0.582174 0.649902 0.472322 0.695365 0.389851 0.777706L0.127804 1.03988C0.0453982 1.12229 4.76837e-07 1.23214 4.76837e-07 1.34934C4.76837e-07 1.46655 0.0453982 1.57646 0.127804 1.6588L3.69109 5.22222C3.77376 5.30476 3.88413 5.35009 4.00146 5.34983C4.11925 5.35009 4.22956 5.30476 4.31216 5.22222Z" fill="#46A44E"/>
</svg>
