<svg  viewBox="0 0 20 20"  xmlns="http://www.w3.org/2000/svg">
<path d="M17.8261 0.869568H2.17391C0.978261 0.869568 0 1.84783 0 3.04348V16.9565C0 18.1522 0.978261 19.1304 2.17391 19.1304H17.8261C19.0217 19.1304 20 18.1522 20 16.9565V3.04348C20 1.84783 19.0217 0.869568 17.8261 0.869568ZM19.1304 16.9565C19.1304 17.6739 18.5435 18.2609 17.8261 18.2609H2.17391C1.45652 18.2609 0.869565 17.6739 0.869565 16.9565V3.04348C0.869565 2.32609 1.45652 1.73913 2.17391 1.73913H17.8261C18.5435 1.73913 19.1304 2.32609 19.1304 3.04348V16.9565Z" />
<path d="M7.82625 6.0871H6.08712V4.34797C6.08712 4.10884 5.89146 3.91319 5.65233 3.91319C5.4132 3.91319 5.21755 4.10884 5.21755 4.34797V6.0871H3.47842C3.23929 6.0871 3.04364 6.28275 3.04364 6.52188C3.04364 6.76101 3.23929 6.95666 3.47842 6.95666H5.21755V8.69579C5.21755 8.93492 5.4132 9.13058 5.65233 9.13058C5.89146 9.13058 6.08712 8.93492 6.08712 8.69579V6.95666H7.82625C8.06538 6.95666 8.26103 6.76101 8.26103 6.52188C8.26103 6.28275 8.06538 6.0871 7.82625 6.0871Z" />
<path d="M16.0871 6.08685H11.7393C11.5002 6.08685 11.3045 6.2825 11.3045 6.52163C11.3045 6.76076 11.5002 6.95641 11.7393 6.95641H16.0871C16.3262 6.95641 16.5219 6.76076 16.5219 6.52163C16.5219 6.2825 16.3262 6.08685 16.0871 6.08685Z" />
<path d="M7.47811 11.6303C7.30419 11.4564 7.02158 11.4564 6.86941 11.6303L5.65202 12.8694L4.43463 11.6303C4.26071 11.4564 3.99984 11.4564 3.82593 11.6303C3.65202 11.8042 3.65202 12.0651 3.82593 12.239L5.06506 13.4781L3.82593 14.7172C3.65202 14.8912 3.65202 15.152 3.82593 15.3259C3.91289 15.4129 4.02158 15.4564 4.13028 15.4564C4.23897 15.4564 4.34767 15.4129 4.43463 15.3259L5.65202 14.0868L6.86941 15.3259C6.95637 15.4129 7.06506 15.4564 7.17376 15.4564C7.28245 15.4564 7.39115 15.4129 7.47811 15.3259C7.65202 15.152 7.65202 14.8912 7.47811 14.7172L6.26071 13.4781L7.49984 12.239C7.65202 12.0651 7.65202 11.8042 7.47811 11.6303Z" />
<path d="M16.0871 13.9132H11.7393C11.5002 13.9132 11.3045 14.1088 11.3045 14.348C11.3045 14.5871 11.5002 14.7828 11.7393 14.7828H16.0871C16.3262 14.7828 16.5219 14.5871 16.5219 14.348C16.5219 14.1088 16.3262 13.9132 16.0871 13.9132Z" />
<path d="M16.0871 11.3045H11.7393C11.5002 11.3045 11.3045 11.5002 11.3045 11.7393C11.3045 11.9785 11.5002 12.1741 11.7393 12.1741H16.0871C16.3262 12.1741 16.5219 11.9785 16.5219 11.7393C16.5219 11.5002 16.3262 11.3045 16.0871 11.3045Z" />
</svg>
