<svg  viewBox="0 0 20 20"  xmlns="http://www.w3.org/2000/svg">
<path fill-rule="evenodd" clip-rule="evenodd" d="M1 4.9375C1 4.62684 1.25184 4.375 1.5625 4.375H18.4375C18.7482 4.375 19 4.62684 19 4.9375V18.4375C19 18.7482 18.7482 19 18.4375 19H1.5625C1.25184 19 1 18.7482 1 18.4375V4.9375ZM2.125 5.5V17.875H17.875V5.5H2.125Z" />
<path fill-rule="evenodd" clip-rule="evenodd" d="M1 4.9375C1 4.62684 1.25184 4.375 1.5625 4.375H18.4375C18.7482 4.375 19 4.62684 19 4.9375V8.3125C19 9.86572 17.7407 11.125 16.1875 11.125H3.8125C2.25928 11.125 1 9.86572 1 8.3125V4.9375ZM2.125 5.5V8.3125C2.125 9.2444 2.8806 10 3.8125 10H16.1875C17.1194 10 17.875 9.2444 17.875 8.3125V5.5H2.125Z" />
<path fill-rule="evenodd" clip-rule="evenodd" d="M6.625 2.125C6.3141 2.125 6.0625 2.3766 6.0625 2.6875V4.9375H4.9375V2.6875C4.9375 1.75528 5.69278 1 6.625 1H13.375C14.3072 1 15.0625 1.75528 15.0625 2.6875V4.9375H13.9375V2.6875C13.9375 2.3766 13.6859 2.125 13.375 2.125H6.625Z" />
<path fill-rule="evenodd" clip-rule="evenodd" d="M10 8.875C9.6891 8.875 9.4375 9.1266 9.4375 9.4375V11.6875C9.4375 11.9984 9.6891 12.25 10 12.25C10.3109 12.25 10.5625 11.9984 10.5625 11.6875V9.4375C10.5625 9.1266 10.3109 8.875 10 8.875ZM8.3125 9.4375C8.3125 8.50528 9.06778 7.75 10 7.75C10.9322 7.75 11.6875 8.50528 11.6875 9.4375V11.6875C11.6875 12.6197 10.9322 13.375 10 13.375C9.06778 13.375 8.3125 12.6197 8.3125 11.6875V9.4375Z" />
<path fill-rule="evenodd" clip-rule="evenodd" d="M8.875 10H11.125V11.125H8.875V10Z" />
</svg>
