<svg  viewBox="0 0 20 20"  xmlns="http://www.w3.org/2000/svg">
<path fill-rule="evenodd" clip-rule="evenodd" d="M16.5261 1.81704C16.6439 1.97985 16.6077 2.20753 16.4453 2.3256C13.7216 4.30624 10.4347 5.38156 7.04405 5.38156H5.24942C3.21048 5.38156 1.55959 7.03702 1.55959 9.08154C1.55959 10.1044 1.9713 11.0294 2.64017 11.6966L2.64149 11.6979C3.30692 12.3686 4.22933 12.7815 5.24939 12.7815H7.04061C10.5105 12.7854 13.5548 14.1686 16.4946 15.9928C16.6651 16.0987 16.7178 16.3231 16.6122 16.4941C16.5067 16.6651 16.2829 16.7179 16.1124 16.6121C13.216 14.8147 10.3104 13.5135 7.03978 13.5098H5.24939C4.03011 13.5098 2.92441 13.0154 2.12717 12.2121C1.32622 11.4127 0.833313 10.3041 0.833313 9.08154C0.833313 6.63481 2.80936 4.65329 5.24942 4.65329H7.04405C10.2813 4.65329 13.419 3.62667 16.019 1.73604C16.1813 1.61797 16.4084 1.65424 16.5261 1.81704Z" />
<path fill-rule="evenodd" clip-rule="evenodd" d="M16.2507 3.6038C15.9489 5.0156 15.7594 6.98249 15.7594 9.16649C15.7594 11.3505 15.9489 13.3175 16.2507 14.7294C16.4023 15.4383 16.5782 15.9882 16.7621 16.3521C16.8544 16.5348 16.9394 16.6516 17.0086 16.7178C17.0484 16.7559 17.0731 16.7684 17.0833 16.7722C17.0936 16.7684 17.1183 16.7559 17.1582 16.7178C17.2273 16.6516 17.3123 16.5348 17.4047 16.3521C17.5885 15.9882 17.7645 15.4383 17.916 14.7294C18.2178 13.3175 18.4072 11.3505 18.4072 9.16649C18.4072 6.98259 18.2178 5.01571 17.916 3.60387C17.7645 2.89497 17.5885 2.34511 17.4047 1.98126C17.3123 1.79854 17.2273 1.68179 17.1582 1.61557C17.1183 1.5774 17.0936 1.56491 17.0833 1.56112C17.0731 1.56491 17.0484 1.57741 17.0086 1.61555C16.9394 1.68177 16.8544 1.79851 16.7621 1.98123C16.5782 2.34506 16.4023 2.89491 16.2507 3.6038ZM17.0888 1.5596C17.0888 1.55965 17.0881 1.55982 17.0869 1.55994C17.0882 1.55962 17.0888 1.55955 17.0888 1.5596ZM17.0798 1.55995C17.0785 1.55982 17.0779 1.55965 17.0779 1.5596C17.0779 1.55955 17.0785 1.55962 17.0798 1.55995ZM19.1667 9.16649C19.1667 6.94889 18.9748 4.9309 18.66 3.45822C18.5033 2.72487 18.3121 2.10758 18.0883 1.66482C17.9769 1.44425 17.8479 1.24784 17.6952 1.10173C17.5416 0.95467 17.3359 0.833344 17.0833 0.833344C16.8308 0.833344 16.6251 0.954676 16.4715 1.10173C16.3189 1.24783 16.1899 1.44423 16.0784 1.66479C15.8547 2.10753 15.6635 2.7248 15.5067 3.45813C15.1919 4.93078 15 6.94878 15 9.16649C15 11.3842 15.1919 13.4023 15.5067 14.875C15.6635 15.6084 15.8546 16.2257 16.0784 16.6685C16.1899 16.8891 16.3188 17.0855 16.4715 17.2316C16.6251 17.3787 16.8308 17.5 17.0833 17.5C17.3359 17.5 17.5416 17.3787 17.6952 17.2316C17.8479 17.0855 17.9769 16.8891 18.0883 16.6685C18.3121 16.2257 18.5033 15.6084 18.66 14.875C18.9748 13.4023 19.1667 11.3842 19.1667 9.16649ZM17.0779 16.7738C17.0779 16.7737 17.0785 16.7735 17.0797 16.7734C17.0785 16.7737 17.0779 16.7738 17.0779 16.7738ZM17.0869 16.7734C17.0882 16.7735 17.0888 16.7737 17.0888 16.7738C17.0888 16.7738 17.0882 16.7737 17.0869 16.7734Z" />
<path fill-rule="evenodd" clip-rule="evenodd" d="M3.62648 12.5042C3.81467 12.474 3.99028 12.6115 4.01872 12.8112L4.70063 17.6016H5.92119L5.30501 13.2896C5.27646 13.0898 5.40586 12.9033 5.59403 12.873C5.78221 12.8427 5.95789 12.98 5.98644 13.1798L6.66275 17.9126C6.67781 18.018 6.64881 18.1251 6.58335 18.206C6.51788 18.2868 6.42245 18.3333 6.32203 18.3333H4.40418C4.23374 18.3333 4.0889 18.2011 4.06344 18.0221L3.33723 12.9206C3.30879 12.7208 3.43829 12.5344 3.62648 12.5042Z" />
<path fill-rule="evenodd" clip-rule="evenodd" d="M17.575 9.16666C17.575 8.20481 16.7952 7.42497 15.8333 7.42497V6.66666C17.214 6.66666 18.3333 7.786 18.3333 9.16666C18.3333 10.5473 17.214 11.6667 15.8333 11.6667V10.9083C16.7952 10.9083 17.575 10.1285 17.575 9.16666Z" />
</svg>
