<svg viewBox="0 0 20 20"  xmlns="http://www.w3.org/2000/svg">
<path d="M10.09 19.3468C4.97295 19.3468 0.833313 15.1879 0.833313 10.09C0.833313 4.99214 4.97295 0.833328 10.09 0.833328C15.2071 0.833328 19.3467 4.99214 19.3467 10.09C19.3467 15.1879 15.1879 19.3468 10.09 19.3468ZM10.09 1.96407C5.6054 1.96407 1.98321 5.60543 1.98321 10.09C1.98321 14.5555 5.62456 18.1969 10.09 18.1969C14.5555 18.1969 18.1968 14.5555 18.1968 10.09C18.1968 5.60543 14.5555 1.96407 10.09 1.96407Z" />
<path d="M10.1858 5.16479C8.44177 5.16479 7.00439 6.58304 7.00439 8.34622C7.00439 8.63364 7.23433 8.86371 7.52188 8.86371C7.8093 8.86371 8.03937 8.63377 8.03937 8.34622C8.03937 7.15802 8.99762 6.19977 10.1858 6.19977C11.374 6.19964 12.3323 7.15789 12.3323 8.34622C12.3323 9.53442 11.374 10.4927 10.1858 10.4927C9.8984 10.4927 9.66833 10.7226 9.66833 11.0102V12.5625C9.66833 12.8499 9.89827 13.08 10.1858 13.08C10.4732 13.08 10.7033 12.85 10.7033 12.5625V11.47C12.2173 11.2208 13.3672 9.91768 13.3672 8.32695C13.3672 6.5829 11.949 5.16479 10.1858 5.16479Z" />
<path d="M10.9138 14.6512C10.9138 15.0535 10.5877 15.3796 10.1855 15.3796C9.7832 15.3796 9.45715 15.0535 9.45715 14.6512C9.45715 14.249 9.78321 13.9229 10.1855 13.9229C10.5877 13.9229 10.9138 14.249 10.9138 14.6512Z" />
</svg>
