<svg  viewBox="0 0 13 16"  xmlns="http://www.w3.org/2000/svg">
<path d="M7.42779 9.11111C8.63771 9.14098 9.81011 8.68993 10.688 7.85681C11.5659 7.02369 12.0777 5.87649 12.1111 4.66666C12.0777 3.45684 11.5659 2.30964 10.688 1.47652C9.81011 0.643404 8.63771 0.192346 7.42779 0.22222H2.66668C2.51934 0.22222 2.37803 0.280752 2.27384 0.384938C2.16966 0.489125 2.11112 0.630433 2.11112 0.777776V8H1.00001C0.852671 8 0.711363 8.05853 0.607177 8.16272C0.50299 8.2669 0.444458 8.40821 0.444458 8.55555C0.444458 8.7029 0.50299 8.8442 0.607177 8.94839C0.711363 9.05258 0.852671 9.11111 1.00001 9.11111H2.11112V10.2222H1.00001C0.852671 10.2222 0.711363 10.2808 0.607177 10.3849C0.50299 10.4891 0.444458 10.6304 0.444458 10.7778C0.444458 10.9251 0.50299 11.0664 0.607177 11.1706C0.711363 11.2748 0.852671 11.3333 1.00001 11.3333H2.11112V15.2222C2.11112 15.3696 2.16966 15.5109 2.27384 15.6151C2.37803 15.7192 2.51934 15.7778 2.66668 15.7778C2.81402 15.7778 2.95533 15.7192 3.05952 15.6151C3.1637 15.5109 3.22224 15.3696 3.22224 15.2222V11.3333H8.22224C8.36958 11.3333 8.51089 11.2748 8.61507 11.1706C8.71926 11.0664 8.77779 10.9251 8.77779 10.7778C8.77779 10.6304 8.71926 10.4891 8.61507 10.3849C8.51089 10.2808 8.36958 10.2222 8.22224 10.2222H3.22224V9.11111H7.42779ZM3.22224 1.33333H7.42779C8.34267 1.3048 9.23171 1.63926 9.90094 2.26373C10.5702 2.8882 10.9653 3.752 11 4.66666C10.9667 5.58183 10.572 6.4465 9.90249 7.07127C9.23294 7.69605 8.34307 8.03 7.42779 8H3.22224V1.33333Z" />
</svg>
