<svg  viewBox="0 0 22 21"  xmlns="http://www.w3.org/2000/svg">
<path d="M21.1458 1.14496C20.7858 0.839675 20.2203 0.795995 19.6357 1.03072H19.6347C19.0198 1.27744 2.22944 8.47935 1.54592 8.77359C1.4216 8.81679 0.335842 9.22192 0.447682 10.1243C0.547522 10.9379 1.42016 11.2749 1.52672 11.3138L5.79536 12.7754C6.07856 13.7181 7.12256 17.1962 7.35344 17.9392C7.49744 18.4024 7.73216 19.011 8.14352 19.1363C8.50448 19.2755 8.86352 19.1483 9.09584 18.9659L11.7056 16.5453L15.9186 19.8309L16.0189 19.8909C16.305 20.0176 16.579 20.081 16.8406 20.081C17.0427 20.081 17.2366 20.043 17.4219 19.9672C18.0531 19.708 18.3056 19.1066 18.332 19.0384L21.4789 2.68144C21.6709 1.80784 21.404 1.36336 21.1458 1.14496ZM9.56 13.36L8.12 17.2L6.68 12.4L17.72 4.24L9.56 13.36Z"/>
</svg>
