<svg  viewBox="0 0 20 14"  xmlns="http://www.w3.org/2000/svg">
<path d="M18.692 1.78226C18.5599 1.70491 18.4082 1.66491 18.254 1.66677C18.0831 1.66615 17.9155 1.71234 17.7703 1.80008L14.6032 3.72884V2.11115C14.6032 1.63961 14.4109 1.18747 14.0686 0.854015C13.7262 0.520565 13.2619 0.333344 12.7778 0.333344H1.82543C1.34125 0.333344 0.877001 0.520596 0.534619 0.854015C0.192236 1.18743 0 1.63961 0 2.11115V11.8889C0 12.3604 0.192269 12.8126 0.534619 13.146C0.876968 13.4795 1.34125 13.6667 1.82543 13.6667H12.7778C13.2619 13.6667 13.7262 13.4794 14.0686 13.146C14.4109 12.8126 14.6032 12.3604 14.6032 11.8889V10.2712L17.7702 12.2001L17.7703 12.1999C17.9155 12.2877 18.0831 12.3339 18.254 12.3333C18.4083 12.3351 18.5599 12.2951 18.692 12.2178C18.8348 12.1417 18.954 12.0299 19.0374 11.894C19.1208 11.758 19.1656 11.6028 19.1667 11.4444V2.5556C19.1656 2.39718 19.1208 2.24201 19.0374 2.10607C18.954 1.97013 18.8348 1.85837 18.692 1.78226L18.692 1.78226ZM13.6905 11.8889C13.6905 12.1247 13.5944 12.3509 13.4231 12.5175C13.252 12.6841 13.0198 12.7779 12.7777 12.7779H1.82541C1.58332 12.7779 1.35109 12.6841 1.18 12.5175C1.00875 12.3509 0.912613 12.1247 0.912613 11.8889V2.11122C0.912613 1.87545 1.00875 1.64928 1.18 1.48265C1.3511 1.31602 1.58332 1.22224 1.82541 1.22224H12.7777C13.0198 1.22224 13.252 1.31602 13.4231 1.48265C13.5944 1.64929 13.6905 1.87545 13.6905 2.11122V11.8889ZM18.254 11.4445L14.6031 9.22233V4.77791L18.254 2.5557V11.4445Z" />
</svg>
