<svg  xmlns="http://www.w3.org/2000/svg">
<path d="M12 0.959961C5.91267 0.959961 0.960032 5.9126 0.960032 12C0.960032 13.9008 1.45107 15.7699 2.38227 17.4192L0.977792 22.4304C0.931712 22.595 0.976352 22.7716 1.09539 22.894C1.18707 22.9886 1.31187 23.04 1.44003 23.04C1.47843 23.04 1.51731 23.0352 1.55523 23.026L6.78531 21.7305C8.38227 22.5878 10.1808 23.04 12 23.04C18.0874 23.04 23.04 18.0873 23.04 12C23.04 5.9126 18.0874 0.959961 12 0.959961ZM17.5536 15.8956C17.3175 16.5494 16.1847 17.146 15.6404 17.2262C15.1517 17.2977 14.5335 17.3284 13.8548 17.1153C13.4434 16.9857 12.9154 16.8139 12.2391 16.5254C9.39603 15.3129 7.53939 12.4862 7.39731 12.2995C7.25571 12.1128 6.24003 10.7822 6.24003 9.40508C6.24003 8.02796 6.97203 7.35068 7.23219 7.07036C7.49235 6.79004 7.79907 6.71996 7.98819 6.71996C8.17731 6.71996 8.36595 6.72236 8.53155 6.73004C8.70579 6.73868 8.93955 6.66428 9.16947 7.21052C9.40563 7.77116 9.97251 9.14828 10.0426 9.28892C10.1136 9.42908 10.1607 9.59276 10.0666 9.77948C9.97251 9.9662 9.92547 10.0828 9.78339 10.2465C9.64131 10.4102 9.48579 10.6113 9.35811 10.7371C9.21603 10.8768 9.06867 11.028 9.23379 11.3083C9.39891 11.5886 9.96771 12.5049 10.8106 13.247C11.893 14.2003 12.8064 14.496 13.0896 14.6361C13.3728 14.7763 13.5384 14.7528 13.7036 14.566C13.8687 14.3788 14.412 13.7486 14.6007 13.4688C14.7893 13.1889 14.9784 13.235 15.2386 13.3286C15.4988 13.4217 16.8922 14.0985 17.1754 14.2387C17.4586 14.3788 17.6477 14.4489 17.7188 14.5656C17.7898 14.6817 17.7898 15.2424 17.5536 15.8956Z"/>
</svg>
