<svg width="24" height="24" viewBox="0 0 24 24" fill="none" xmlns="http://www.w3.org/2000/svg">
<path d="M23.4613 17.5113C23.2219 18.7713 22.2045 19.7313 20.9476 19.9113C18.9726 20.2113 15.6808 20.5713 11.9701 20.5713C8.3192 20.5713 5.02743 20.2113 2.99252 19.9113C1.73566 19.7313 0.718205 18.7713 0.478803 17.5113C0.239402 16.1313 0 14.0913 0 11.5713C0 9.05129 0.239402 7.01129 0.478803 5.63129C0.718205 4.37129 1.73566 3.41129 2.99252 3.23129C4.96758 2.93129 8.25935 2.57129 11.9701 2.57129C15.6808 2.57129 18.9127 2.93129 20.9476 3.23129C22.2045 3.41129 23.2219 4.37129 23.4613 5.63129C23.7007 7.01129 24 9.05129 24 11.5713C23.9401 14.0913 23.7007 16.1313 23.4613 17.5113Z" fill="#CDD2DD"/>
<path d="M9.42871 16.2853V7.71387L17.143 11.9996L9.42871 16.2853Z" fill="white"/>
</svg>
